<svg xmlns="http://www.w3.org/2000/svg" xmlns:xlink="http://www.w3.org/1999/xlink" width="500" zoomAndPan="magnify" viewBox="0 0 375 374.999991" height="500" preserveAspectRatio="xMidYMid meet" version="1.0"><defs><g/><clipPath id="dc834cf182"><path d="M 195 85.320312 L 217 85.320312 L 217 90 L 195 90 Z M 195 85.320312 " clip-rule="nonzero"/></clipPath><clipPath id="992c0349ff"><path d="M 170 85.320312 L 193 85.320312 L 193 89 L 170 89 Z M 170 85.320312 " clip-rule="nonzero"/></clipPath><clipPath id="fd2a72c96a"><path d="M 87.363281 162 L 91 162 L 91 185 L 87.363281 185 Z M 87.363281 162 " clip-rule="nonzero"/></clipPath><clipPath id="ff4d7c37c9"><path d="M 87.363281 178 L 90 178 L 90 200 L 87.363281 200 Z M 87.363281 178 " clip-rule="nonzero"/></clipPath><clipPath id="92e2e57e9d"><path d="M 106 235 L 121 235 L 121 247.320312 L 106 247.320312 Z M 106 235 " clip-rule="nonzero"/></clipPath><clipPath id="e2771d1815"><path d="M 285 149 L 287.613281 149 L 287.613281 162 L 285 162 Z M 285 149 " clip-rule="nonzero"/></clipPath><clipPath id="730f09c151"><path d="M 285 149 L 287.613281 149 L 287.613281 155 L 285 155 Z M 285 149 " clip-rule="nonzero"/></clipPath></defs><path fill="#393536" d="M 146.246094 96 C 146.421875 95.433594 146.679688 95.074219 147.019531 94.914062 L 151.582031 92.929688 C 155.863281 91.386719 161.632812 89.46875 166.015625 88.238281 L 168.171875 87.742188 C 167.808594 87.882812 167.53125 88.246094 167.351562 88.835938 C 164.066406 89.972656 159.695312 91.535156 156.492188 92.886719 C 153.394531 93.742188 149.273438 94.917969 146.246094 96 " fill-opacity="1" fill-rule="nonzero"/><path fill="#393536" d="M 124.886719 109.289062 C 125.015625 108.867188 125.195312 108.566406 125.421875 108.378906 L 125.5 108.320312 C 134.121094 101.890625 134.285156 101.765625 139.132812 98.988281 L 143.917969 96.417969 C 143.589844 96.582031 143.34375 96.9375 143.175781 97.484375 C 140.207031 99.371094 136.269531 101.921875 133.433594 104 C 130.828125 105.519531 127.367188 107.578125 124.886719 109.289062 " fill-opacity="1" fill-rule="nonzero"/><path fill="#393536" d="M 283.800781 144.84375 L 283.890625 144.902344 L 285.886719 149.710938 L 283.800781 144.84375 " fill-opacity="1" fill-rule="nonzero"/><path fill="#393536" d="M 277.308594 133.542969 C 277.339844 133.4375 277.390625 133.371094 277.457031 133.347656 C 279.152344 136.210938 281.390625 140.050781 282.914062 143.007812 L 285.886719 149.710938 L 282.796875 143.167969 C 281.199219 140.253906 279.042969 136.378906 277.308594 133.542969 " fill-opacity="1" fill-rule="nonzero"/><path fill="#393536" d="M 261.375 114.546875 C 261.453125 114.304688 261.566406 114.152344 261.714844 114.09375 C 264.023438 116.386719 267.078125 119.46875 269.25 121.890625 C 271.203125 124.453125 273.789062 127.886719 275.617188 130.542969 C 275.539062 130.574219 275.480469 130.648438 275.441406 130.773438 C 273.484375 128.273438 270.847656 124.953125 268.734375 122.582031 C 266.566406 120.136719 263.652344 116.890625 261.375 114.546875 " fill-opacity="1" fill-rule="nonzero"/><path fill="#393536" d="M 241.742188 100.097656 C 241.855469 99.734375 242.023438 99.507812 242.25 99.421875 C 245.03125 101.089844 248.730469 103.34375 251.410156 105.171875 C 253.820312 107.136719 257.019531 109.785156 259.324219 111.875 C 259.164062 111.9375 259.039062 112.097656 258.960938 112.355469 C 256.476562 110.496094 253.140625 108.035156 250.539062 106.339844 C 247.929688 104.425781 244.4375 101.890625 241.742188 100.097656 " fill-opacity="1" fill-rule="nonzero"/><path fill="#393536" d="M 219.40625 90.609375 C 219.550781 90.144531 219.765625 89.855469 220.054688 89.746094 C 223.175781 90.738281 227.332031 92.089844 230.390625 93.269531 C 233.132812 94.585938 236.777344 96.367188 239.4375 97.839844 C 239.207031 97.929688 239.027344 98.164062 238.910156 98.542969 C 236.027344 97.367188 232.171875 95.828125 229.214844 94.847656 C 226.296875 93.523438 222.390625 91.777344 219.40625 90.609375 " fill-opacity="1" fill-rule="nonzero"/><g clip-path="url(#dc834cf182)"><path fill="#393536" d="M 195.371094 86.488281 C 195.535156 85.949219 195.789062 85.617188 196.121094 85.488281 C 199.359375 85.746094 203.679688 86.105469 206.890625 86.554688 L 207.335938 86.628906 C 210.234375 87.234375 214.101562 88.070312 216.957031 88.859375 C 216.660156 88.972656 216.441406 89.265625 216.292969 89.742188 C 213.144531 89.296875 208.9375 88.734375 205.761719 88.503906 C 202.660156 87.835938 198.507812 86.972656 195.371094 86.488281 " fill-opacity="1" fill-rule="nonzero"/></g><g clip-path="url(#992c0349ff)"><path fill="#393536" d="M 170.632812 88.15625 C 170.816406 87.570312 171.089844 87.210938 171.449219 87.070312 L 175.710938 86.339844 C 178.191406 86.078125 181.492188 85.632812 183.980469 85.46875 L 187.03125 85.320312 L 192.867188 85.355469 C 192.53125 85.484375 192.273438 85.820312 192.105469 86.371094 C 188.824219 86.695312 184.441406 87.167969 181.1875 87.714844 C 178.019531 87.773438 173.792969 87.882812 170.632812 88.15625 " fill-opacity="1" fill-rule="nonzero"/></g><path fill="#393536" d="M 107.925781 126.792969 C 108.007812 126.539062 108.105469 126.328125 108.222656 126.167969 C 109.871094 124.160156 112.007812 121.429688 113.738281 119.488281 C 116.417969 116.734375 120.03125 113.097656 122.875 110.515625 C 122.664062 110.699219 122.496094 110.992188 122.375 111.390625 C 119.964844 113.839844 116.78125 117.132812 114.527344 119.722656 C 112.492188 121.792969 109.800781 124.582031 107.925781 126.792969 " fill-opacity="1" fill-rule="nonzero"/><path fill="#393536" d="M 283.703125 145.167969 C 283.695312 145.097656 283.691406 145.035156 283.695312 144.988281 L 285.886719 149.710938 L 283.703125 145.167969 " fill-opacity="1" fill-rule="nonzero"/><path fill="#393536" d="M 270.039062 125.277344 C 269.992188 124.863281 269.976562 124.519531 269.988281 124.242188 C 272.003906 126.671875 274.671875 129.941406 276.53125 132.496094 C 278.265625 135.320312 280.554688 139.101562 282.15625 142 C 282.152344 142.082031 282.15625 142.183594 282.167969 142.300781 C 280.558594 139.726562 278.386719 136.304688 276.601562 133.847656 C 274.671875 131.246094 271.289062 128.261719 270.039062 125.277344 " fill-opacity="1" fill-rule="nonzero"/><path fill="#393536" d="M 252.160156 109.597656 C 252.078125 108.875 252.050781 108.273438 252.070312 107.792969 C 254.59375 109.550781 257.945312 111.925781 260.347656 113.851562 C 262.628906 116.199219 265.652344 119.355469 267.828125 121.804688 C 267.816406 122.109375 267.835938 122.488281 267.886719 122.945312 C 265.71875 121.050781 262.804688 118.542969 260.5 116.820312 C 258.027344 114.617188 253.742188 112.503906 252.160156 109.597656 " fill-opacity="1" fill-rule="nonzero"/><path fill="#393536" d="M 231.070312 98.496094 C 230.957031 97.511719 230.917969 96.691406 230.945312 96.035156 C 233.839844 97.082031 237.695312 98.515625 240.515625 99.757812 C 243.21875 101.574219 246.8125 104.015625 249.429688 105.949219 C 249.40625 106.460938 249.4375 107.089844 249.523438 107.851562 C 246.921875 106.667969 243.429688 105.121094 240.742188 104.148438 C 237.867188 102.414062 234.015625 100.117188 231.070312 98.496094 " fill-opacity="1" fill-rule="nonzero"/><path fill="#393536" d="M 207.769531 92.359375 C 207.632812 91.164062 207.585938 90.167969 207.617188 89.371094 C 210.753906 89.675781 214.933594 90.113281 218.042969 90.632812 C 221.039062 91.84375 225.023438 93.488281 227.953125 94.847656 C 227.925781 95.527344 227.96875 96.375 228.082031 97.390625 C 225.167969 96.953125 221.269531 96.40625 218.332031 96.195312 C 215.179688 94.996094 210.96875 93.417969 207.769531 92.359375 " fill-opacity="1" fill-rule="nonzero"/><path fill="#393536" d="M 183.261719 91.550781 C 183.109375 90.210938 183.050781 89.097656 183.089844 88.199219 C 186.332031 87.726562 190.660156 87.128906 193.929688 86.878906 C 197.085938 87.417969 201.289062 88.171875 204.410156 88.890625 C 204.375 89.707031 204.425781 90.71875 204.566406 91.9375 C 201.464844 92.269531 197.328125 92.753906 194.261719 93.316406 C 190.96875 92.726562 186.578125 91.964844 183.261719 91.550781 " fill-opacity="1" fill-rule="nonzero"/><path fill="#393536" d="M 158.542969 96.449219 C 158.382812 95.039062 158.324219 93.867188 158.359375 92.925781 C 161.574219 91.644531 165.878906 89.96875 169.175781 88.90625 C 172.355469 88.707031 176.605469 88.472656 179.796875 88.480469 C 179.757812 89.382812 179.816406 90.511719 179.96875 91.863281 C 176.808594 92.988281 172.609375 94.527344 169.535156 95.859375 C 166.230469 95.960938 161.828125 96.132812 158.542969 96.449219 " fill-opacity="1" fill-rule="nonzero"/><path fill="#393536" d="M 135.230469 107.09375 C 135.070312 105.699219 135.011719 104.539062 135.054688 103.605469 C 137.949219 101.585938 141.839844 98.917969 144.863281 97.089844 C 147.914062 96.089844 152 94.789062 155.121094 94.015625 C 155.078125 94.960938 155.136719 96.136719 155.296875 97.546875 C 152.234375 99.460938 148.164062 102.046875 145.226562 104.152344 C 142.207031 104.960938 138.183594 106.070312 135.230469 107.09375 " fill-opacity="1" fill-rule="nonzero"/><path fill="#393536" d="M 115.96875 122.199219 C 115.820312 120.902344 115.769531 119.824219 115.804688 118.957031 C 118.128906 116.40625 121.257812 113.019531 123.734375 110.613281 C 126.246094 108.980469 129.617188 106.832031 132.246094 105.398438 C 132.210938 106.324219 132.265625 107.476562 132.421875 108.863281 C 129.871094 111.363281 126.488281 114.71875 124.082031 117.359375 C 121.605469 118.742188 118.324219 120.621094 115.96875 122.199219 " fill-opacity="1" fill-rule="nonzero"/><path fill="#393536" d="M 101.316406 140.773438 C 101.1875 139.644531 101.144531 138.707031 101.175781 137.953125 C 102.875 135.015625 105.171875 131.109375 107.039062 128.269531 C 108.945312 126.125 111.519531 123.285156 113.589844 121.292969 C 113.554688 122.144531 113.605469 123.210938 113.75 124.488281 C 111.777344 127.402344 109.171875 131.308594 107.351562 134.320312 C 105.484375 136.199219 103.015625 138.738281 101.316406 140.773438 " fill-opacity="1" fill-rule="nonzero"/><path fill="#393536" d="M 91.683594 161.859375 C 91.582031 160.960938 91.546875 160.214844 91.570312 159.617188 C 92.597656 156.433594 93.992188 152.195312 95.1875 149.074219 C 96.449219 146.527344 98.160156 143.144531 99.601562 140.695312 C 99.570312 141.429688 99.617188 142.347656 99.742188 143.445312 C 98.398438 146.621094 96.636719 150.867188 95.445312 154.101562 C 94.25 156.394531 92.6875 159.476562 91.683594 161.859375 " fill-opacity="1" fill-rule="nonzero"/><g clip-path="url(#fd2a72c96a)"><path fill="#393536" d="M 87.480469 184.515625 C 87.414062 183.898438 87.386719 183.386719 87.402344 182.976562 L 87.46875 181.898438 L 87.902344 176.996094 L 88.796875 170.796875 C 89.332031 168.34375 90.023438 165.058594 90.695312 162.640625 C 90.671875 163.214844 90.710938 163.933594 90.804688 164.796875 C 90.144531 168.078125 89.285156 172.460938 88.777344 175.769531 C 88.320312 178.382812 87.746094 181.875 87.480469 184.515625 " fill-opacity="1" fill-rule="nonzero"/></g><path fill="#393536" d="M 277.605469 136.148438 C 277.59375 136.09375 277.582031 136.039062 277.566406 135.988281 C 277.492188 135.65625 277.433594 135.355469 277.382812 135.085938 C 279.074219 137.578125 281.300781 140.929688 282.816406 143.53125 L 285.886719 149.710938 L 282.992188 144.382812 C 281.417969 141.886719 278.804688 138.847656 277.605469 136.148438 " fill-opacity="1" fill-rule="nonzero"/><path fill="#393536" d="M 262.058594 120.535156 C 262.03125 120.410156 262.003906 120.285156 261.972656 120.160156 C 261.800781 119.398438 261.660156 118.707031 261.554688 118.089844 C 263.78125 119.859375 266.726562 122.253906 268.8125 124.1875 C 270.867188 126.679688 273.585938 130.019531 275.535156 132.597656 C 275.589844 132.914062 275.660156 133.265625 275.75 133.65625 C 275.761719 133.722656 275.777344 133.785156 275.792969 133.851562 C 273.984375 132.007812 271.546875 129.570312 269.582031 127.894531 C 267.351562 125.660156 263.636719 123.265625 262.058594 120.535156 " fill-opacity="1" fill-rule="nonzero"/><path fill="#393536" d="M 242.765625 109.0625 C 242.722656 108.875 242.679688 108.6875 242.636719 108.5 C 242.378906 107.359375 242.167969 106.328125 242.007812 105.40625 C 244.636719 106.425781 248.132812 107.832031 250.671875 109.0625 C 253.242188 111.152344 256.660156 113.960938 259.148438 116.152344 C 259.265625 116.8125 259.417969 117.550781 259.601562 118.367188 C 259.632812 118.496094 259.660156 118.632812 259.691406 118.765625 C 257.414062 117.664062 254.351562 116.222656 251.972656 115.335938 C 249.230469 113.425781 244.683594 111.800781 242.765625 109.0625 " fill-opacity="1" fill-rule="nonzero"/><path fill="#393536" d="M 220.710938 102.039062 C 220.65625 101.796875 220.601562 101.558594 220.546875 101.324219 C 220.21875 99.867188 219.949219 98.550781 219.742188 97.375 C 222.644531 97.636719 226.519531 98.023438 229.394531 98.519531 C 232.355469 100.140625 236.289062 102.328125 239.1875 104.0625 C 239.355469 105.023438 239.574219 106.097656 239.84375 107.285156 C 239.886719 107.476562 239.929688 107.671875 239.976562 107.867188 C 237.339844 107.523438 233.8125 107.097656 231.152344 106.984375 C 228.035156 105.464844 223.871094 103.460938 220.710938 102.039062 " fill-opacity="1" fill-rule="nonzero"/><path fill="#393536" d="M 196.886719 99.765625 C 196.820312 99.484375 196.757812 99.210938 196.695312 98.933594 C 196.3125 97.242188 196.003906 95.714844 195.761719 94.347656 C 198.816406 93.839844 202.894531 93.199219 205.976562 92.921875 C 209.191406 94 213.472656 95.460938 216.636719 96.675781 C 216.851562 97.882812 217.125 99.230469 217.460938 100.722656 C 217.515625 100.964844 217.574219 101.210938 217.632812 101.457031 C 214.757812 101.878906 210.929688 102.476562 208.09375 103.113281 C 204.746094 102.070312 200.273438 100.691406 196.886719 99.765625 " fill-opacity="1" fill-rule="nonzero"/><path fill="#393536" d="M 172.28125 102.546875 C 172.207031 102.246094 172.140625 101.945312 172.070312 101.648438 C 171.65625 99.8125 171.320312 98.15625 171.058594 96.675781 C 174.140625 95.394531 178.265625 93.714844 181.429688 92.644531 C 184.757812 93.09375 189.199219 93.722656 192.503906 94.34375 C 192.746094 95.730469 193.0625 97.277344 193.453125 98.996094 C 193.515625 99.273438 193.578125 99.554688 193.644531 99.835938 C 190.660156 101.023438 186.691406 102.636719 183.789062 104.007812 C 180.34375 103.519531 175.742188 102.886719 172.28125 102.546875 " fill-opacity="1" fill-rule="nonzero"/><path fill="#393536" d="M 147.921875 110.667969 C 147.851562 110.359375 147.78125 110.050781 147.710938 109.746094 C 147.289062 107.878906 146.945312 106.191406 146.679688 104.679688 C 149.65625 102.625 153.644531 99.914062 156.742188 98.046875 C 160.046875 97.78125 164.464844 97.460938 167.777344 97.40625 C 168.039062 98.894531 168.378906 100.5625 168.796875 102.40625 C 168.863281 102.707031 168.933594 103.007812 169.007812 103.316406 C 166.03125 105.246094 162.082031 107.855469 159.214844 109.941406 C 155.824219 110.097656 151.300781 110.332031 147.921875 110.667969 " fill-opacity="1" fill-rule="nonzero"/><path fill="#393536" d="M 126.492188 123.351562 C 126.421875 123.054688 126.355469 122.761719 126.289062 122.472656 C 125.882812 120.679688 125.554688 119.058594 125.300781 117.613281 C 127.761719 115.003906 131.070312 111.542969 133.679688 109.078125 C 136.632812 108.125 140.589844 106.890625 143.605469 106.148438 C 143.871094 107.65625 144.214844 109.339844 144.636719 111.207031 C 144.703125 111.507812 144.773438 111.8125 144.847656 112.121094 C 142.179688 114.675781 138.644531 118.105469 136.109375 120.789062 C 133.207031 121.492188 129.339844 122.457031 126.492188 123.351562 " fill-opacity="1" fill-rule="nonzero"/><path fill="#393536" d="M 109.371094 139.449219 C 109.308594 139.183594 109.25 138.917969 109.191406 138.65625 C 108.824219 137.046875 108.53125 135.589844 108.300781 134.285156 C 110.183594 131.292969 112.722656 127.316406 114.753906 124.421875 C 117.121094 122.914062 120.304688 120.9375 122.78125 119.628906 C 123.035156 121.0625 123.359375 122.664062 123.761719 124.4375 C 123.824219 124.726562 123.894531 125.015625 123.964844 125.308594 C 121.832031 128.265625 119.011719 132.21875 117.007812 135.261719 C 114.683594 136.453125 111.589844 138.070312 109.371094 139.449219 " fill-opacity="1" fill-rule="nonzero"/><path fill="#393536" d="M 96.992188 158.089844 C 96.9375 157.867188 96.886719 157.644531 96.839844 157.425781 C 96.535156 156.082031 96.285156 154.867188 96.097656 153.777344 C 97.355469 150.554688 99.058594 146.265625 100.46875 143.105469 C 102.1875 141.140625 104.511719 138.539062 106.394531 136.730469 C 106.621094 138.007812 106.910156 139.4375 107.269531 141.019531 C 107.328125 141.277344 107.386719 141.535156 107.445312 141.796875 C 105.894531 144.980469 103.84375 149.238281 102.417969 152.480469 C 100.730469 154.105469 98.507812 156.304688 96.992188 158.089844 " fill-opacity="1" fill-rule="nonzero"/><path fill="#393536" d="M 89.769531 178.386719 C 89.730469 178.21875 89.691406 178.054688 89.65625 177.890625 C 89.429688 176.886719 89.242188 175.976562 89.101562 175.164062 C 89.683594 171.863281 90.488281 167.460938 91.226562 164.191406 C 92.25 161.859375 93.640625 158.761719 94.859375 156.527344 C 95.042969 157.582031 95.285156 158.761719 95.578125 160.066406 C 95.625 160.277344 95.675781 160.488281 95.726562 160.707031 C 94.792969 163.957031 93.570312 168.300781 92.765625 171.589844 C 91.796875 173.59375 90.53125 176.292969 89.769531 178.386719 " fill-opacity="1" fill-rule="nonzero"/><g clip-path="url(#ff4d7c37c9)"><path fill="#393536" d="M 88.128906 199.460938 C 88.105469 199.363281 88.082031 199.261719 88.058594 199.164062 C 87.921875 198.558594 87.8125 198.011719 87.726562 197.523438 C 87.582031 194.292969 87.421875 189.976562 87.445312 186.738281 C 87.71875 184.136719 88.113281 180.667969 88.585938 178.097656 C 88.722656 178.867188 88.894531 179.730469 89.113281 180.6875 C 89.148438 180.839844 89.183594 180.996094 89.222656 181.15625 C 88.949219 184.328125 88.609375 188.558594 88.480469 191.738281 C 88.304688 194.050781 88.105469 197.140625 88.128906 199.460938 " fill-opacity="1" fill-rule="nonzero"/></g><path fill="#393536" d="M 283.976562 146.332031 C 283.933594 146.191406 283.894531 146.054688 283.863281 145.925781 L 285.886719 149.710938 L 283.976562 146.332031 " fill-opacity="1" fill-rule="nonzero"/><path fill="#393536" d="M 271.589844 131.90625 C 271.347656 131.089844 271.128906 130.316406 270.9375 129.589844 C 272.800781 131.3125 275.253906 133.648438 276.953125 135.527344 C 278.632812 137.90625 280.863281 141.09375 282.429688 143.546875 C 282.484375 143.757812 282.546875 143.980469 282.617188 144.214844 C 281.230469 142.464844 279.355469 140.140625 277.796875 138.539062 C 275.960938 136.523438 272.96875 134.253906 271.589844 131.90625 " fill-opacity="1" fill-rule="nonzero"/><path fill="#393536" d="M 254.863281 121.152344 C 254.441406 119.730469 254.066406 118.382812 253.730469 117.113281 C 256.027344 118.0625 259.078125 119.363281 261.273438 120.523438 C 263.582031 122.652344 266.648438 125.5 268.878906 127.707031 C 269.09375 128.507812 269.332031 129.363281 269.597656 130.261719 C 267.695312 129.253906 265.132812 127.933594 263.125 127.148438 C 260.664062 125.328125 256.648438 123.640625 254.863281 121.152344 " fill-opacity="1" fill-rule="nonzero"/><path fill="#393536" d="M 234.757812 114.28125 C 234.183594 112.339844 233.667969 110.496094 233.210938 108.765625 C 235.820312 108.945312 239.304688 109.21875 241.886719 109.632812 C 244.691406 111.441406 248.425781 113.871094 251.175781 115.761719 C 251.527344 117.097656 251.925781 118.515625 252.367188 120.011719 C 250.050781 119.757812 246.957031 119.453125 244.628906 119.429688 C 241.679688 117.863281 237.742188 115.785156 234.757812 114.28125 " fill-opacity="1" fill-rule="nonzero"/><path fill="#393536" d="M 212.242188 111.496094 C 211.546875 109.144531 210.921875 106.90625 210.367188 104.808594 C 213.175781 104.234375 216.933594 103.5 219.777344 103.140625 C 222.949219 104.5625 227.167969 106.46875 230.296875 107.984375 C 230.765625 109.769531 231.296875 111.667969 231.886719 113.671875 C 229.28125 114.164062 225.8125 114.859375 223.253906 115.558594 C 219.960938 114.3125 215.5625 112.664062 212.242188 111.496094 " fill-opacity="1" fill-rule="nonzero"/><path fill="#393536" d="M 163.8125 119.015625 C 162.996094 116.238281 162.257812 113.601562 161.605469 111.128906 C 164.488281 109.097656 168.355469 106.410156 171.34375 104.535156 C 174.820312 104.914062 179.453125 105.441406 182.910156 105.964844 C 183.539062 108.339844 184.246094 110.871094 185.035156 113.539062 C 182.195312 115.445312 178.425781 118.015625 175.6875 120.054688 C 172.128906 119.695312 167.382812 119.234375 163.8125 119.015625 " fill-opacity="1" fill-rule="nonzero"/><path fill="#393536" d="M 140.445312 129.414062 C 139.636719 126.664062 138.90625 124.058594 138.261719 121.613281 C 140.855469 118.972656 144.339844 115.472656 147.066406 112.96875 C 150.453125 112.691406 154.972656 112.355469 158.371094 112.257812 C 159.023438 114.738281 159.761719 117.378906 160.582031 120.160156 C 157.8125 122.6875 154.136719 126.082031 151.476562 128.730469 C 148.164062 128.886719 143.746094 129.113281 140.445312 129.414062 " fill-opacity="1" fill-rule="nonzero"/><path fill="#393536" d="M 120.820312 142.960938 C 120.066406 140.40625 119.386719 137.980469 118.789062 135.707031 C 120.859375 132.699219 123.644531 128.699219 125.839844 125.78125 C 128.699219 124.972656 132.527344 123.925781 135.4375 123.296875 C 136.078125 125.726562 136.804688 128.316406 137.609375 131.046875 C 135.304688 133.957031 132.246094 137.851562 130.050781 140.84375 C 127.269531 141.417969 123.5625 142.214844 120.820312 142.960938 " fill-opacity="1" fill-rule="nonzero"/><path fill="#393536" d="M 105.535156 158.832031 C 104.882812 156.609375 104.289062 154.5 103.769531 152.519531 C 105.273438 149.304688 107.300781 145.027344 108.925781 141.871094 C 111.171875 140.585938 114.1875 138.898438 116.527344 137.800781 C 117.121094 140.042969 117.789062 142.433594 118.53125 144.953125 C 116.75 148.058594 114.386719 152.214844 112.707031 155.378906 C 110.523438 156.347656 107.625 157.675781 105.535156 158.832031 " fill-opacity="1" fill-rule="nonzero"/><path fill="#393536" d="M 95.042969 176.234375 C 94.523438 174.464844 94.050781 172.789062 93.636719 171.210938 C 94.527344 167.949219 95.738281 163.601562 96.753906 160.371094 C 98.308594 158.679688 100.417969 156.441406 102.132812 154.910156 C 102.644531 156.839844 103.21875 158.898438 103.859375 161.066406 C 102.636719 164.210938 101.019531 168.410156 99.894531 171.589844 C 98.386719 172.925781 96.390625 174.734375 95.042969 176.234375 " fill-opacity="1" fill-rule="nonzero"/><path fill="#393536" d="M 89.789062 194.394531 C 89.429688 193.179688 89.109375 192.027344 88.824219 190.945312 C 89.054688 187.785156 89.382812 183.566406 89.75 180.421875 C 90.554688 178.398438 91.667969 175.710938 92.683594 173.789062 C 93.082031 175.304688 93.535156 176.917969 94.035156 178.617188 C 93.410156 181.644531 92.589844 185.683594 92.074219 188.734375 C 91.3125 190.398438 90.335938 192.648438 89.789062 194.394531 " fill-opacity="1" fill-rule="nonzero"/><path fill="#393536" d="M 90.222656 212.535156 C 90.050781 211.949219 89.898438 211.398438 89.761719 210.878906 C 89.277344 207.96875 88.660156 204.078125 88.335938 201.144531 C 88.347656 198.878906 88.390625 195.851562 88.605469 193.597656 C 88.875 194.609375 89.175781 195.6875 89.511719 196.820312 C 89.523438 199.589844 89.558594 203.285156 89.710938 206.054688 C 89.792969 208.003906 89.945312 210.605469 90.222656 212.535156 " fill-opacity="1" fill-rule="nonzero"/><path fill="#393536" d="M 90.996094 215.992188 L 90.550781 214.335938 L 90.339844 213.492188 C 90.457031 213.933594 90.585938 214.402344 90.734375 214.898438 L 91.546875 217.902344 C 91.378906 217.328125 91.152344 216.566406 90.996094 215.992188 " fill-opacity="1" fill-rule="nonzero"/><path fill="#393536" d="M 279.101562 141.257812 C 278.914062 140.683594 278.734375 140.132812 278.570312 139.605469 C 280.027344 141.230469 281.941406 143.4375 283.222656 145.207031 L 285.886719 149.710938 L 283.648438 146.527344 C 282.316406 144.921875 280.164062 143.054688 279.101562 141.257812 " fill-opacity="1" fill-rule="nonzero"/><path fill="#393536" d="M 265.5 132.261719 C 265.0625 130.949219 264.65625 129.683594 264.273438 128.464844 C 266.203125 129.300781 268.769531 130.453125 270.589844 131.503906 C 272.515625 133.40625 275.078125 135.953125 276.929688 137.925781 C 277.125 138.550781 277.335938 139.199219 277.558594 139.875 C 276.070312 139.019531 274.054688 137.90625 272.457031 137.277344 C 270.382812 135.753906 267.039062 134.324219 265.5 132.261719 " fill-opacity="1" fill-rule="nonzero"/><path fill="#393536" d="M 247.917969 126.621094 C 247.261719 124.65625 246.648438 122.757812 246.082031 120.9375 C 248.367188 121.007812 251.417969 121.140625 253.683594 121.449219 C 256.210938 123.167969 259.578125 125.472656 262.0625 127.257812 C 262.46875 128.554688 262.90625 129.914062 263.375 131.316406 C 261.417969 131.207031 258.796875 131.101562 256.84375 131.226562 C 254.171875 129.832031 249.886719 128.898438 247.917969 126.621094 " fill-opacity="1" fill-rule="nonzero"/><path fill="#393536" d="M 227.277344 124.421875 C 226.445312 121.917969 225.664062 119.5 224.9375 117.179688 C 227.476562 116.523438 230.875 115.675781 233.457031 115.230469 C 236.457031 116.707031 240.453125 118.683594 243.425781 120.21875 C 244.015625 122.109375 244.652344 124.085938 245.332031 126.125 C 243.027344 126.746094 239.960938 127.617188 237.71875 128.425781 C 234.59375 127.210938 230.421875 125.597656 227.277344 124.421875 " fill-opacity="1" fill-rule="nonzero"/><path fill="#393536" d="M 204.511719 125.761719 C 203.546875 122.855469 202.636719 120.046875 201.796875 117.351562 C 204.488281 116 208.097656 114.222656 210.871094 113.046875 C 214.207031 114.195312 218.652344 115.746094 221.960938 116.972656 C 222.703125 119.351562 223.507812 121.828125 224.359375 124.394531 C 221.824219 125.703125 218.457031 127.476562 216 128.933594 C 212.5625 127.960938 207.96875 126.675781 204.511719 125.761719 " fill-opacity="1" fill-rule="nonzero"/><path fill="#393536" d="M 180.546875 130.730469 C 179.496094 127.578125 178.511719 124.53125 177.601562 121.609375 C 180.351562 119.605469 184.039062 116.949219 186.882812 115.082031 C 190.414062 115.828125 195.117188 116.835938 198.625 117.675781 C 199.480469 120.410156 200.398438 123.261719 201.382812 126.210938 C 198.71875 128.148438 195.183594 130.75 192.605469 132.800781 C 188.992188 132.148438 184.171875 131.296875 180.546875 130.730469 " fill-opacity="1" fill-rule="nonzero"/><path fill="#393536" d="M 156.351562 139.394531 C 155.28125 136.179688 154.277344 133.074219 153.347656 130.097656 C 156.042969 127.492188 159.652344 124.03125 162.453125 121.53125 C 166.027344 121.773438 170.792969 122.117188 174.359375 122.492188 C 175.277344 125.429688 176.269531 128.496094 177.324219 131.667969 C 174.628906 134.160156 171.054688 137.5 168.441406 140.078125 C 164.816406 139.835938 159.980469 139.527344 156.351562 139.394531 " fill-opacity="1" fill-rule="nonzero"/><path fill="#393536" d="M 116.644531 164.234375 C 115.71875 161.460938 114.855469 158.78125 114.054688 156.214844 C 115.789062 153.078125 118.125 148.902344 119.960938 145.820312 C 122.691406 145.140625 126.34375 144.261719 129.109375 143.746094 C 129.992188 146.570312 130.941406 149.515625 131.957031 152.5625 C 129.96875 155.59375 127.328125 159.640625 125.414062 162.71875 C 122.773438 163.121094 119.253906 163.679688 116.644531 164.234375 " fill-opacity="1" fill-rule="nonzero"/><path fill="#393536" d="M 103.058594 178.773438 C 102.289062 176.460938 101.566406 174.222656 100.894531 172.078125 C 102.082031 168.925781 103.683594 164.726562 104.96875 161.609375 C 107.058594 160.535156 109.863281 159.136719 112.039062 158.242188 C 112.824219 160.761719 113.671875 163.390625 114.578125 166.109375 C 113.085938 169.128906 111.105469 173.164062 109.6875 176.21875 C 107.675781 176.925781 105 177.890625 103.058594 178.773438 " fill-opacity="1" fill-rule="nonzero"/><path fill="#393536" d="M 94.300781 193.835938 C 93.726562 192.105469 93.1875 190.4375 92.6875 188.835938 C 93.277344 185.816406 94.085938 181.792969 94.777344 178.792969 C 96.140625 177.378906 97.992188 175.515625 99.511719 174.265625 C 100.160156 176.34375 100.859375 178.511719 101.609375 180.753906 C 100.652344 183.617188 99.382812 187.4375 98.5 190.324219 C 97.191406 191.316406 95.457031 192.671875 94.300781 193.835938 " fill-opacity="1" fill-rule="nonzero"/><path fill="#393536" d="M 90.855469 208.757812 C 90.511719 207.71875 90.183594 206.710938 89.886719 205.75 C 89.824219 203.007812 89.773438 199.351562 89.84375 196.609375 C 90.414062 194.925781 91.203125 192.679688 91.992188 191.085938 C 92.46875 192.609375 92.980469 194.195312 93.527344 195.835938 C 93.148438 198.402344 92.644531 201.824219 92.359375 204.402344 C 91.828125 205.679688 91.160156 207.410156 90.855469 208.757812 " fill-opacity="1" fill-rule="nonzero"/><path fill="#393536" d="M 92.605469 221.25 C 92.398438 220.625 92.128906 219.789062 91.925781 219.160156 L 91.765625 218.632812 L 90.617188 214.285156 C 90.347656 212.398438 90.007812 209.875 89.945312 207.96875 C 90.21875 208.839844 90.511719 209.75 90.824219 210.691406 C 91.058594 212.839844 91.382812 215.703125 91.761719 217.828125 C 92.007812 218.855469 92.273438 220.246094 92.605469 221.25 " fill-opacity="1" fill-rule="nonzero"/><path fill="#393536" d="M 284.546875 148.050781 C 284.480469 147.867188 284.417969 147.691406 284.359375 147.515625 L 285.886719 149.710938 L 284.546875 148.050781 " fill-opacity="1" fill-rule="nonzero"/><path fill="#393536" d="M 274.835938 141.660156 C 274.460938 140.628906 274.105469 139.617188 273.761719 138.628906 C 275.261719 139.304688 277.257812 140.253906 278.640625 141.152344 C 280.046875 142.632812 281.914062 144.609375 283.246094 146.160156 C 283.34375 146.445312 283.449219 146.734375 283.554688 147.035156 C 282.546875 146.375 281.164062 145.515625 280.035156 145.09375 C 278.484375 144.050781 276.003906 143.121094 274.835938 141.660156 " fill-opacity="1" fill-rule="nonzero"/><path fill="#393536" d="M 260.523438 138.160156 C 259.871094 136.359375 259.246094 134.59375 258.652344 132.875 C 260.550781 132.800781 263.089844 132.734375 264.984375 132.894531 C 267.097656 134.316406 269.914062 136.21875 271.996094 137.683594 C 272.371094 138.773438 272.769531 139.890625 273.179688 141.03125 C 271.636719 141.109375 269.574219 141.265625 268.058594 141.570312 C 265.800781 140.542969 262.789062 139.175781 260.523438 138.160156 " fill-opacity="1" fill-rule="nonzero"/><path fill="#393536" d="M 242.488281 137.507812 C 241.597656 135.046875 240.742188 132.636719 239.929688 130.289062 C 242.144531 129.515625 245.105469 128.507812 247.378906 127.933594 C 250.074219 129.246094 253.671875 131 256.351562 132.351562 C 256.980469 134.15625 257.636719 136.015625 258.324219 137.910156 C 256.378906 138.707031 253.796875 139.800781 251.925781 140.761719 C 249.097656 139.78125 245.324219 138.480469 242.488281 137.507812 " fill-opacity="1" fill-rule="nonzero"/><path fill="#393536" d="M 198.78125 144.578125 C 197.570312 141.234375 196.410156 137.957031 195.304688 134.765625 C 197.878906 132.75 201.324219 130.070312 203.984375 128.167969 C 207.449219 129.070312 212.066406 130.28125 215.519531 131.234375 C 216.523438 134.132812 217.578125 137.113281 218.679688 140.15625 C 216.246094 142.167969 213.007812 144.871094 210.648438 146.96875 C 207.089844 146.242188 202.347656 145.273438 198.78125 144.578125 " fill-opacity="1" fill-rule="nonzero"/><path fill="#393536" d="M 151.378906 162.253906 C 150.121094 158.777344 148.910156 155.367188 147.761719 152.050781 C 150.167969 149.128906 153.398438 145.246094 155.898438 142.40625 C 159.527344 142.578125 164.371094 142.824219 167.996094 143.097656 C 169.160156 146.457031 170.382812 149.910156 171.660156 153.4375 C 169.101562 156.296875 165.703125 160.121094 163.214844 163.039062 C 159.664062 162.785156 154.933594 162.453125 151.378906 162.253906 " fill-opacity="1" fill-rule="nonzero"/><path fill="#393536" d="M 130.992188 173.515625 C 129.820312 170.277344 128.695312 167.105469 127.625 164.019531 C 129.59375 160.96875 132.234375 156.90625 134.277344 153.90625 C 137.457031 153.757812 141.695312 153.585938 144.878906 153.550781 C 146.023438 156.847656 147.222656 160.238281 148.476562 163.695312 C 146.292969 166.65625 143.390625 170.617188 141.265625 173.621094 C 138.183594 173.558594 134.074219 173.484375 130.992188 173.515625 " fill-opacity="1" fill-rule="nonzero"/><path fill="#393536" d="M 114.382812 185.402344 C 113.363281 182.585938 112.386719 179.828125 111.457031 177.144531 C 112.941406 174.117188 114.9375 170.085938 116.492188 167.09375 C 119.109375 166.628906 122.601562 166.035156 125.242188 165.707031 C 126.296875 168.75 127.402344 171.875 128.558594 175.066406 C 126.804688 177.972656 124.472656 181.84375 122.761719 184.773438 C 120.246094 184.921875 116.886719 185.132812 114.382812 185.402344 " fill-opacity="1" fill-rule="nonzero"/><path fill="#393536" d="M 94.628906 208.933594 C 94.074219 207.394531 93.535156 205.882812 93.027344 204.417969 C 93.410156 201.867188 93.9375 198.476562 94.40625 195.945312 C 95.605469 194.890625 97.234375 193.511719 98.566406 192.636719 C 99.277344 194.691406 100.027344 196.800781 100.804688 198.953125 C 100.027344 201.3125 98.996094 204.457031 98.265625 206.828125 C 97.140625 207.398438 95.640625 208.179688 94.628906 208.933594 " fill-opacity="1" fill-rule="nonzero"/><path fill="#393536" d="M 92.546875 219.511719 C 92.277344 218.773438 92.023438 218.046875 91.777344 217.34375 C 91.523438 215.238281 91.210938 212.425781 91.085938 210.3125 C 91.441406 209.046875 91.953125 207.359375 92.535156 206.183594 C 93.011719 207.558594 93.511719 208.96875 94.03125 210.40625 C 93.804688 212.300781 93.507812 214.832031 93.363281 216.738281 C 93.035156 217.542969 92.640625 218.648438 92.546875 219.511719 " fill-opacity="1" fill-rule="nonzero"/><path fill="#393536" d="M 93.347656 223.390625 C 93.171875 222.894531 92.941406 222.230469 92.769531 221.734375 L 92.050781 218.972656 C 92.257812 219.570312 92.476562 220.1875 92.703125 220.8125 C 92.960938 221.777344 93.238281 223.082031 93.578125 224.019531 L 93.347656 223.390625 " fill-opacity="1" fill-rule="nonzero"/><path fill="#393536" d="M 281.449219 147.738281 C 281.195312 147.082031 280.945312 146.429688 280.707031 145.785156 C 281.746094 146.25 283.125 146.921875 284.035156 147.609375 L 285.886719 149.710938 L 284.628906 149.171875 C 283.671875 148.746094 282.167969 148.5 281.449219 147.738281 " fill-opacity="1" fill-rule="nonzero"/><path fill="#393536" d="M 270.886719 147.148438 C 270.300781 145.632812 269.734375 144.132812 269.183594 142.660156 C 270.65625 142.386719 272.632812 142.046875 274.132812 142.007812 C 275.730469 142.960938 277.867188 144.234375 279.453125 145.214844 C 279.734375 145.972656 280.027344 146.742188 280.328125 147.519531 C 279.226562 147.847656 277.761719 148.335938 276.726562 148.84375 C 274.972656 148.347656 272.632812 147.679688 270.886719 147.148438 " fill-opacity="1" fill-rule="nonzero"/><path fill="#393536" d="M 255.984375 148.90625 C 255.105469 146.640625 254.253906 144.394531 253.429688 142.183594 C 255.277344 141.246094 257.753906 140.007812 259.679688 139.234375 C 261.96875 140.199219 265.023438 141.480469 267.316406 142.445312 C 267.90625 144.023438 268.515625 145.628906 269.140625 147.25 C 267.589844 148.273438 265.539062 149.671875 264.074219 150.8125 C 261.644531 150.257812 258.40625 149.503906 255.984375 148.90625 " fill-opacity="1" fill-rule="nonzero"/><path fill="#393536" d="M 237.5625 152.84375 C 236.445312 149.949219 235.359375 147.089844 234.308594 144.269531 C 236.449219 142.71875 239.320312 140.664062 241.546875 139.234375 C 244.402344 140.15625 248.210938 141.390625 251.066406 142.316406 C 251.925781 144.617188 252.808594 146.953125 253.722656 149.308594 C 251.824219 150.941406 249.304688 153.136719 247.480469 154.855469 C 244.503906 154.261719 240.535156 153.464844 237.5625 152.84375 " fill-opacity="1" fill-rule="nonzero"/><path fill="#393536" d="M 216.457031 158.769531 C 215.160156 155.410156 213.898438 152.085938 212.679688 148.816406 C 215.03125 146.722656 218.179688 143.945312 220.609375 141.941406 C 223.898438 142.777344 228.28125 143.890625 231.5625 144.734375 C 232.640625 147.621094 233.753906 150.554688 234.898438 153.515625 C 232.730469 155.664062 229.855469 158.542969 227.753906 160.75 C 224.363281 160.160156 219.84375 159.371094 216.457031 158.769531 " fill-opacity="1" fill-rule="nonzero"/><path fill="#393536" d="M 169.546875 175.863281 C 168.117188 172.15625 166.71875 168.480469 165.371094 164.863281 C 167.886719 161.964844 171.25 158.109375 173.820312 155.261719 C 177.542969 155.703125 182.511719 156.304688 186.226562 156.808594 C 187.558594 160.375 188.933594 164.003906 190.351562 167.664062 C 187.882812 170.519531 184.597656 174.332031 182.15625 177.214844 C 178.375 176.800781 173.332031 176.253906 169.546875 175.863281 " fill-opacity="1" fill-rule="nonzero"/><path fill="#393536" d="M 128.03125 195.699219 C 126.792969 192.496094 125.589844 189.328125 124.425781 186.207031 C 126.179688 183.304688 128.523438 179.433594 130.316406 176.550781 C 133.378906 176.574219 137.457031 176.625 140.515625 176.730469 C 141.796875 180.164062 143.121094 183.648438 144.480469 187.167969 C 142.503906 189.980469 139.871094 193.730469 137.914062 196.554688 C 134.949219 196.277344 130.996094 195.914062 128.03125 195.699219 " fill-opacity="1" fill-rule="nonzero"/><path fill="#393536" d="M 112.5625 205.03125 C 111.53125 202.363281 110.523438 199.714844 109.554688 197.113281 C 110.855469 194.425781 112.59375 190.847656 113.921875 188.179688 C 116.40625 187.984375 119.722656 187.75 122.214844 187.667969 C 123.355469 190.726562 124.535156 193.835938 125.75 196.976562 C 124.171875 199.523438 122.066406 202.921875 120.492188 205.472656 C 118.113281 205.3125 114.941406 205.109375 112.5625 205.03125 " fill-opacity="1" fill-rule="nonzero"/><path fill="#393536" d="M 101.402344 213.449219 C 100.628906 211.457031 99.878906 209.480469 99.152344 207.535156 C 99.945312 205.199219 101.011719 202.085938 101.847656 199.761719 C 103.652344 199.339844 106.070312 198.808594 107.902344 198.535156 C 108.84375 201.058594 109.820312 203.621094 110.820312 206.210938 C 109.683594 208.371094 108.167969 211.25 107.027344 213.410156 C 105.339844 213.386719 103.089844 213.363281 101.402344 213.449219 " fill-opacity="1" fill-rule="nonzero"/><path fill="#393536" d="M 95.125 220.558594 C 94.664062 219.359375 94.210938 218.171875 93.777344 217 C 94.003906 215.132812 94.324219 212.640625 94.621094 210.785156 C 95.640625 210.140625 97.027344 209.320312 98.136719 208.855469 C 98.828125 210.703125 99.542969 212.582031 100.273438 214.480469 C 99.625 216.136719 98.765625 218.347656 98.125 220.011719 C 97.21875 220.128906 96 220.285156 95.125 220.558594 " fill-opacity="1" fill-rule="nonzero"/><path fill="#393536" d="M 94.234375 225.765625 L 93.953125 225.027344 L 93.710938 224.378906 C 93.410156 223.292969 92.988281 221.839844 92.789062 220.726562 C 92.910156 219.941406 93.105469 218.867188 93.46875 218.160156 C 93.863281 219.21875 94.273438 220.296875 94.691406 221.382812 C 94.574219 222.441406 94.417969 223.859375 94.378906 224.921875 C 94.292969 225.164062 94.167969 225.515625 94.234375 225.765625 " fill-opacity="1" fill-rule="nonzero"/><path fill="#393536" d="M 285.316406 150.03125 C 285.234375 149.835938 285.15625 149.640625 285.078125 149.449219 L 285.886719 149.710938 L 285.316406 150.03125 " fill-opacity="1" fill-rule="nonzero"/><path fill="#393536" d="M 279.195312 152.929688 C 278.742188 151.820312 278.296875 150.714844 277.859375 149.617188 C 278.835938 149.128906 280.15625 148.480469 281.210938 148.183594 C 282.171875 148.535156 283.457031 149.007812 284.429688 149.332031 C 284.554688 149.648438 284.683594 149.96875 284.816406 150.289062 C 284.226562 150.925781 283.46875 151.796875 282.949219 152.488281 C 281.828125 152.671875 280.328125 152.878906 279.195312 152.929688 " fill-opacity="1" fill-rule="nonzero"/><path fill="#393536" d="M 252.867188 164.332031 C 251.789062 161.699219 250.726562 159.066406 249.6875 156.449219 C 251.480469 154.730469 253.878906 152.449219 255.746094 150.8125 C 258.179688 151.335938 261.425781 152.03125 263.871094 152.503906 C 264.671875 154.523438 265.492188 156.554688 266.324219 158.582031 C 264.828125 160.441406 262.84375 162.933594 261.402344 164.835938 C 258.839844 164.714844 255.425781 164.535156 252.867188 164.332031 " fill-opacity="1" fill-rule="nonzero"/><path fill="#393536" d="M 234.203125 172.1875 C 232.890625 168.992188 231.605469 165.800781 230.34375 162.625 C 232.421875 160.417969 235.199219 157.476562 237.339844 155.328125 C 240.324219 155.894531 244.300781 156.640625 247.289062 157.171875 C 248.359375 159.875 249.457031 162.589844 250.570312 165.304688 C 248.734375 167.632812 246.296875 170.738281 244.507812 173.09375 C 241.414062 172.84375 237.289062 172.5 234.203125 172.1875 " fill-opacity="1" fill-rule="nonzero"/><path fill="#393536" d="M 144.644531 208.796875 C 143.222656 205.335938 141.824219 201.871094 140.457031 198.425781 C 142.457031 195.613281 145.125 191.867188 147.136719 189.070312 C 150.574219 189.433594 155.15625 189.925781 158.59375 190.3125 C 160.050781 193.996094 161.546875 197.695312 163.0625 201.398438 C 160.894531 204.164062 158.003906 207.855469 155.828125 210.613281 C 152.472656 210.070312 148 209.34375 144.644531 208.796875 " fill-opacity="1" fill-rule="nonzero"/><path fill="#393536" d="M 111.539062 221.816406 C 110.554688 219.417969 109.585938 217.019531 108.640625 214.632812 C 109.835938 212.5 111.429688 209.652344 112.617188 207.515625 C 114.992188 207.675781 118.15625 207.90625 120.527344 208.140625 C 121.6875 211.066406 122.871094 214.003906 124.078125 216.945312 C 122.597656 218.941406 120.617188 221.601562 119.09375 223.5625 C 116.828125 223.03125 113.808594 222.316406 111.539062 221.816406 " fill-opacity="1" fill-rule="nonzero"/><path fill="#393536" d="M 101.125 225.722656 C 100.449219 224.074219 99.785156 222.429688 99.132812 220.789062 C 99.847656 219.160156 100.792969 216.984375 101.503906 215.355469 C 103.1875 215.375 105.429688 215.425781 107.109375 215.539062 C 108.019531 217.832031 108.949219 220.136719 109.894531 222.441406 C 108.835938 223.898438 107.417969 225.835938 106.300781 227.25 C 104.753906 226.78125 102.6875 226.160156 101.125 225.722656 " fill-opacity="1" fill-rule="nonzero"/><path fill="#393536" d="M 95.664062 227.570312 C 95.339844 226.777344 95.019531 225.988281 94.707031 225.199219 C 94.859375 224.167969 95.078125 222.796875 95.277344 221.777344 C 96.160156 221.636719 97.347656 221.492188 98.242188 221.480469 C 98.847656 223.011719 99.472656 224.550781 100.101562 226.09375 C 99.523438 226.917969 98.753906 228.019531 98.113281 228.800781 C 97.378906 228.433594 96.222656 228.171875 95.664062 227.570312 " fill-opacity="1" fill-rule="nonzero"/><path fill="#393536" d="M 95.125 227.976562 C 94.726562 227.011719 94.726562 227.011719 94.535156 226.527344 L 94.375 226.125 C 94.40625 225.988281 94.441406 225.808594 94.472656 225.671875 L 94.535156 225.636719 C 94.800781 226.304688 95.070312 226.976562 95.34375 227.644531 C 95.292969 227.773438 95.285156 228.003906 95.160156 228.074219 L 95.125 227.976562 " fill-opacity="1" fill-rule="nonzero"/><path fill="#393536" d="M 284.296875 154.691406 C 284.011719 154.03125 283.726562 153.363281 283.445312 152.695312 C 283.925781 151.980469 284.558594 151.019531 285.105469 150.355469 L 285.886719 149.710938 L 285.785156 151.949219 C 285.421875 152.8125 284.890625 153.964844 284.296875 154.691406 " fill-opacity="1" fill-rule="nonzero"/><path fill="#393536" d="M 277.429688 163.105469 C 276.769531 161.585938 276.117188 160.054688 275.472656 158.519531 C 276.453125 157.152344 277.769531 155.335938 278.8125 154.015625 C 279.980469 153.871094 281.546875 153.667969 282.683594 153.363281 C 283.015625 154.148438 283.351562 154.9375 283.6875 155.714844 C 283.117188 157.300781 282.363281 159.410156 281.792969 160.996094 C 280.519531 161.695312 278.789062 162.585938 277.429688 163.105469 " fill-opacity="1" fill-rule="nonzero"/><path fill="#393536" d="M 265.777344 172.796875 C 264.792969 170.527344 263.816406 168.234375 262.847656 165.933594 C 264.257812 164.011719 266.144531 161.453125 267.605469 159.570312 C 269.539062 159.566406 272.121094 159.546875 274.046875 159.421875 C 274.738281 161.066406 275.4375 162.703125 276.144531 164.328125 C 275.089844 166.441406 273.6875 169.265625 272.652344 171.386719 C 270.601562 171.863281 267.859375 172.46875 265.777344 172.796875 " fill-opacity="1" fill-rule="nonzero"/><path fill="#393536" d="M 162.582031 223.3125 C 161.035156 219.75 159.503906 216.15625 157.988281 212.546875 C 160.179688 209.789062 163.101562 206.113281 165.285156 203.351562 C 168.988281 203.851562 173.929688 204.511719 177.636719 204.980469 C 179.214844 208.738281 180.8125 212.480469 182.421875 216.1875 C 180.113281 218.960938 177.035156 222.65625 174.703125 225.410156 C 171.066406 224.796875 166.214844 223.972656 162.582031 223.3125 " fill-opacity="1" fill-rule="nonzero"/><path fill="#393536" d="M 141.855469 229.421875 C 140.464844 226.214844 139.085938 222.980469 137.722656 219.734375 C 139.617188 217.324219 142.140625 214.113281 144.011719 211.683594 C 147.351562 212.257812 151.800781 213.027344 155.140625 213.597656 C 156.640625 217.171875 158.15625 220.726562 159.6875 224.253906 C 157.617188 226.621094 154.847656 229.773438 152.730469 232.101562 C 149.46875 231.304688 145.113281 230.242188 141.855469 229.421875 " fill-opacity="1" fill-rule="nonzero"/><path fill="#393536" d="M 124.101562 233.179688 C 122.941406 230.503906 121.789062 227.804688 120.652344 225.09375 C 122.199219 223.144531 124.257812 220.535156 125.765625 218.554688 C 128.613281 219.148438 132.414062 219.945312 135.257812 220.554688 C 136.59375 223.738281 137.949219 226.914062 139.3125 230.058594 C 137.53125 231.921875 135.148438 234.40625 133.304688 236.207031 C 130.539062 235.304688 126.859375 234.097656 124.101562 233.179688 " fill-opacity="1" fill-rule="nonzero"/><path fill="#393536" d="M 110.019531 234.476562 C 109.152344 232.476562 108.292969 230.460938 107.441406 228.4375 C 108.589844 227.042969 110.101562 225.171875 111.191406 223.734375 C 113.433594 224.300781 116.425781 225.0625 118.660156 225.65625 C 119.765625 228.28125 120.882812 230.902344 122.007812 233.492188 C 120.574219 234.777344 118.652344 236.480469 117.140625 237.664062 C 115 236.714844 111.660156 236.144531 110.019531 234.476562 " fill-opacity="1" fill-rule="nonzero"/><path fill="#393536" d="M 100.316406 233.210938 C 99.792969 232.007812 99.273438 230.792969 98.765625 229.574219 C 99.441406 228.820312 100.324219 227.796875 100.9375 226.988281 C 102.464844 227.5 104.496094 228.1875 106.015625 228.71875 C 106.824219 230.640625 107.640625 232.558594 108.464844 234.457031 C 107.445312 235.09375 106.066406 235.933594 104.960938 236.410156 C 103.558594 235.460938 101.375 234.527344 100.316406 233.210938 " fill-opacity="1" fill-rule="nonzero"/><path fill="#393536" d="M 95.855469 229.699219 L 95.75 229.460938 C 95.613281 229.136719 95.429688 228.710938 95.292969 228.386719 C 95.421875 228.332031 95.578125 228.210938 95.660156 228.09375 C 96.351562 228.542969 97.277344 229.128906 97.988281 229.550781 C 98.449219 230.652344 98.917969 231.753906 99.394531 232.84375 C 98.804688 232.789062 97.996094 232.671875 97.484375 232.375 C 96.976562 231.582031 96.246094 230.554688 95.855469 229.699219 " fill-opacity="1" fill-rule="nonzero"/><path fill="#393536" d="M 286.175781 152.011719 C 286.09375 151.832031 286.007812 151.644531 285.921875 151.457031 L 285.886719 149.710938 L 286.175781 152.011719 " fill-opacity="1" fill-rule="nonzero"/><path fill="#393536" d="M 284.097656 164.203125 C 283.617188 163.167969 283.140625 162.113281 282.660156 161.042969 C 283.15625 159.421875 283.8125 157.265625 284.296875 155.640625 C 284.832031 154.785156 285.519531 153.601562 285.816406 152.632812 C 285.953125 152.941406 286.09375 153.246094 286.230469 153.546875 C 286.238281 155.40625 286.230469 157.890625 286.160156 159.75 C 285.625 161.121094 284.867188 162.949219 284.097656 164.203125 " fill-opacity="1" fill-rule="nonzero"/><g clip-path="url(#92e2e57e9d)"><path fill="#393536" d="M 108.429688 242.527344 C 107.71875 240.984375 107.003906 239.410156 106.292969 237.816406 C 107.4375 237.316406 108.953125 236.605469 110.019531 235.949219 C 112.148438 236.980469 114.984375 238.351562 117.121094 239.359375 C 118.117188 241.589844 119.113281 243.792969 120.109375 245.949219 C 118.648438 246.425781 116.683594 247.035156 115.167969 247.300781 C 113.132812 245.886719 109.996094 244.445312 108.429688 242.527344 " fill-opacity="1" fill-rule="nonzero"/></g><path fill="#393536" d="M 99.167969 235.632812 C 98.828125 234.894531 98.484375 234.136719 98.144531 233.371094 C 98.765625 233.628906 99.636719 233.929688 100.308594 233.9375 C 101.679688 234.992188 103.519531 236.386719 104.929688 237.390625 C 105.59375 238.882812 106.261719 240.351562 106.925781 241.792969 C 105.828125 241.53125 104.359375 241.136719 103.347656 240.640625 C 102.0625 239.164062 100.179688 237.308594 99.167969 235.632812 " fill-opacity="1" fill-rule="nonzero"/><path fill="#393536" d="M 96.457031 231.054688 C 96.328125 230.765625 96.152344 230.378906 96.023438 230.085938 C 96.445312 230.832031 96.964844 231.855469 97.449219 232.566406 C 97.738281 233.214844 98.027344 233.855469 98.316406 234.484375 L 97.027344 232.292969 C 96.855469 231.921875 96.625 231.425781 96.457031 231.054688 " fill-opacity="1" fill-rule="nonzero"/><g clip-path="url(#e2771d1815)"><path fill="#393536" d="M 287.28125 161.144531 C 287.015625 160.605469 286.738281 160.035156 286.449219 159.433594 L 286.445312 159.417969 C 286.429688 157.515625 286.40625 154.980469 286.296875 153.082031 L 285.886719 149.710938 L 286.964844 154.453125 C 287.140625 156.457031 287.347656 159.136719 287.28125 161.144531 " fill-opacity="1" fill-rule="nonzero"/></g><path fill="#393536" d="M 286.980469 153.632812 C 286.914062 153.511719 286.84375 153.378906 286.769531 153.234375 L 285.886719 149.710938 L 286.980469 153.632812 " fill-opacity="1" fill-rule="nonzero"/><g clip-path="url(#730f09c151)"><path fill="#393536" d="M 287.546875 154.527344 C 287.503906 154.476562 287.460938 154.417969 287.410156 154.347656 L 285.886719 149.710938 L 287.546875 154.527344 " fill-opacity="1" fill-rule="nonzero"/></g><g fill="#312f30" fill-opacity="1"><g transform="translate(131.685093, 273.564091)"><g><path d="M 8.65625 0.203125 C 7.1875 0.203125 5.863281 -0.113281 4.6875 -0.75 C 3.507812 -1.394531 2.582031 -2.28125 1.90625 -3.40625 C 1.238281 -4.539062 0.90625 -5.820312 0.90625 -7.25 C 0.90625 -8.664062 1.242188 -9.941406 1.921875 -11.078125 C 2.597656 -12.210938 3.523438 -13.097656 4.703125 -13.734375 C 5.890625 -14.378906 7.210938 -14.703125 8.671875 -14.703125 C 9.859375 -14.703125 10.941406 -14.492188 11.921875 -14.078125 C 12.898438 -13.660156 13.726562 -13.0625 14.40625 -12.28125 L 12.671875 -10.640625 C 11.617188 -11.773438 10.328125 -12.34375 8.796875 -12.34375 C 7.804688 -12.34375 6.914062 -12.125 6.125 -11.6875 C 5.34375 -11.25 4.726562 -10.644531 4.28125 -9.875 C 3.84375 -9.101562 3.625 -8.226562 3.625 -7.25 C 3.625 -6.269531 3.84375 -5.390625 4.28125 -4.609375 C 4.726562 -3.835938 5.34375 -3.234375 6.125 -2.796875 C 6.914062 -2.367188 7.804688 -2.15625 8.796875 -2.15625 C 10.328125 -2.15625 11.617188 -2.726562 12.671875 -3.875 L 14.40625 -2.21875 C 13.726562 -1.425781 12.894531 -0.820312 11.90625 -0.40625 C 10.925781 0 9.84375 0.203125 8.65625 0.203125 Z M 8.65625 0.203125 "/></g></g></g><g fill="#312f30" fill-opacity="1"><g transform="translate(146.320249, 273.564091)"><g><path d="M 8.71875 0.203125 C 7.238281 0.203125 5.90625 -0.113281 4.71875 -0.75 C 3.53125 -1.394531 2.597656 -2.285156 1.921875 -3.421875 C 1.242188 -4.566406 0.90625 -5.84375 0.90625 -7.25 C 0.90625 -8.65625 1.242188 -9.925781 1.921875 -11.0625 C 2.597656 -12.207031 3.53125 -13.097656 4.71875 -13.734375 C 5.90625 -14.378906 7.238281 -14.703125 8.71875 -14.703125 C 10.195312 -14.703125 11.523438 -14.378906 12.703125 -13.734375 C 13.890625 -13.097656 14.820312 -12.210938 15.5 -11.078125 C 16.175781 -9.941406 16.515625 -8.664062 16.515625 -7.25 C 16.515625 -5.820312 16.175781 -4.539062 15.5 -3.40625 C 14.820312 -2.28125 13.890625 -1.394531 12.703125 -0.75 C 11.523438 -0.113281 10.195312 0.203125 8.71875 0.203125 Z M 8.71875 -2.15625 C 9.6875 -2.15625 10.554688 -2.367188 11.328125 -2.796875 C 12.097656 -3.234375 12.703125 -3.84375 13.140625 -4.625 C 13.585938 -5.40625 13.8125 -6.28125 13.8125 -7.25 C 13.8125 -8.207031 13.585938 -9.078125 13.140625 -9.859375 C 12.703125 -10.640625 12.097656 -11.25 11.328125 -11.6875 C 10.554688 -12.125 9.6875 -12.34375 8.71875 -12.34375 C 7.75 -12.34375 6.878906 -12.125 6.109375 -11.6875 C 5.335938 -11.25 4.726562 -10.640625 4.28125 -9.859375 C 3.84375 -9.078125 3.625 -8.207031 3.625 -7.25 C 3.625 -6.28125 3.84375 -5.40625 4.28125 -4.625 C 4.726562 -3.84375 5.335938 -3.234375 6.109375 -2.796875 C 6.878906 -2.367188 7.75 -2.15625 8.71875 -2.15625 Z M 8.71875 -2.15625 "/></g></g></g><g fill="#312f30" fill-opacity="1"><g transform="translate(163.335977, 273.564091)"><g><path d="M 4.890625 -12.21875 L 0.078125 -12.21875 L 0.078125 -14.484375 L 12.375 -14.484375 L 12.375 -12.21875 L 7.578125 -12.21875 L 7.578125 0 L 4.890625 0 Z M 4.890625 -12.21875 "/></g></g></g><g fill="#312f30" fill-opacity="1"><g transform="translate(175.383543, 273.564091)"><g><path d="M 1.140625 -6.828125 L 6.828125 -6.828125 L 6.828125 -4.671875 L 1.140625 -4.671875 Z M 1.140625 -6.828125 "/></g></g></g><g fill="#312f30" fill-opacity="1"><g transform="translate(182.939067, 273.564091)"><g><path d="M 11.421875 0 L 8.46875 -4.25 C 8.34375 -4.226562 8.15625 -4.21875 7.90625 -4.21875 L 4.640625 -4.21875 L 4.640625 0 L 1.953125 0 L 1.953125 -14.484375 L 7.90625 -14.484375 C 9.164062 -14.484375 10.257812 -14.273438 11.1875 -13.859375 C 12.125 -13.453125 12.835938 -12.863281 13.328125 -12.09375 C 13.828125 -11.320312 14.078125 -10.40625 14.078125 -9.34375 C 14.078125 -8.25 13.8125 -7.304688 13.28125 -6.515625 C 12.75 -5.734375 11.988281 -5.148438 11 -4.765625 L 14.328125 0 Z M 11.359375 -9.34375 C 11.359375 -10.257812 11.054688 -10.96875 10.453125 -11.46875 C 9.847656 -11.96875 8.957031 -12.21875 7.78125 -12.21875 L 4.640625 -12.21875 L 4.640625 -6.4375 L 7.78125 -6.4375 C 8.957031 -6.4375 9.847656 -6.6875 10.453125 -7.1875 C 11.054688 -7.695312 11.359375 -8.414062 11.359375 -9.34375 Z M 11.359375 -9.34375 "/></g></g></g><g fill="#312f30" fill-opacity="1"><g transform="translate(197.657025, 273.564091)"><g><path d="M 11.34375 -3.359375 L 4.09375 -3.359375 L 2.671875 0 L -0.109375 0 L 6.421875 -14.484375 L 9.0625 -14.484375 L 15.609375 0 L 12.796875 0 Z M 10.453125 -5.46875 L 7.71875 -11.796875 L 5.015625 -5.46875 Z M 10.453125 -5.46875 "/></g></g></g><g fill="#312f30" fill-opacity="1"><g transform="translate(212.747596, 273.564091)"><g><path d="M 1.953125 -14.484375 L 8.28125 -14.484375 C 9.820312 -14.484375 11.191406 -14.179688 12.390625 -13.578125 C 13.597656 -12.984375 14.53125 -12.140625 15.1875 -11.046875 C 15.851562 -9.953125 16.1875 -8.6875 16.1875 -7.25 C 16.1875 -5.8125 15.851562 -4.539062 15.1875 -3.4375 C 14.53125 -2.34375 13.597656 -1.492188 12.390625 -0.890625 C 11.191406 -0.296875 9.820312 0 8.28125 0 L 1.953125 0 Z M 8.15625 -2.28125 C 9.21875 -2.28125 10.148438 -2.484375 10.953125 -2.890625 C 11.765625 -3.296875 12.390625 -3.875 12.828125 -4.625 C 13.265625 -5.375 13.484375 -6.25 13.484375 -7.25 C 13.484375 -8.238281 13.265625 -9.109375 12.828125 -9.859375 C 12.390625 -10.617188 11.765625 -11.203125 10.953125 -11.609375 C 10.148438 -12.015625 9.21875 -12.21875 8.15625 -12.21875 L 4.640625 -12.21875 L 4.640625 -2.28125 Z M 8.15625 -2.28125 "/></g></g></g><g fill="#312f30" fill-opacity="1"><g transform="translate(229.432113, 273.564091)"><g><path d="M 12.8125 -2.25 L 12.8125 0 L 1.953125 0 L 1.953125 -14.484375 L 12.53125 -14.484375 L 12.53125 -12.234375 L 4.640625 -12.234375 L 4.640625 -8.46875 L 11.640625 -8.46875 L 11.640625 -6.25 L 4.640625 -6.25 L 4.640625 -2.25 Z M 12.8125 -2.25 "/></g></g></g></svg>